<svg xmlns="http://www.w3.org/2000/svg" viewBox="0 0 1024 1024"><defs><style>.cls-1{fill:#007bbf;}.cls-2{fill:#fff;}.cls-3{fill:none;stroke:#fff;stroke-miterlimit:10;stroke-width:36px;}</style></defs><title>Aktiv 8</title><g id="Lag_2" data-name="Lag 2"><g id="Lag_1-2" data-name="Lag 1"><rect class="cls-1" width="1024" height="1024"/></g><g id="Lag_2-2" data-name="Lag 2"><path class="cls-2" d="M166.11,492.66v21.6h109.8v39.6H166.11v96.48h-46.8V492.66c0-61.2,41.4-97.93,110.16-97.93,28.44,0,54.36,6.13,73.08,18.37l-14.76,38.15c-16.2-11.15-36.36-15.47-56.16-15.47C188.07,435.78,166.11,455.58,166.11,492.66Z"/><path class="cls-2" d="M323,610.92V475.23h29.5V608.8c0,12.27,5.9,18.88,17.69,18.88a26.15,26.15,0,0,0,10.62-2.36l1.42,23.6a50.91,50.91,0,0,1-17.7,3.07C338.32,652,323,637.12,323,610.92Z"/><path class="cls-2" d="M502.33,613.29l15.58,18.17C506.82,644.91,489.12,652,467.41,652c-42.25,0-69.62-27.14-69.62-64.66s27.37-64.43,64.9-64.43c35.16,0,63.48,23.6,63.71,63l-96.52,18.88C436,619.18,449.71,627,468.11,627,482.27,627,493.13,622.49,502.33,613.29Zm-76-27.62v.24l71.27-13.69c-4-15.34-17.23-25.72-34.92-25.72C441.21,546.5,426.34,561.6,426.34,585.67Z"/><path class="cls-2" d="M633.55,522.9V551a37.69,37.69,0,0,0-6.85-.71c-22.42,0-36.58,13.22-36.58,38.94v61.13h-29.5v-126h28.09v18.4C597.2,529.51,612.54,522.9,633.55,522.9Z"/><path class="cls-2" d="M759.8,613.29l15.58,18.17C764.29,644.91,746.59,652,724.88,652c-42.25,0-69.62-27.14-69.62-64.66s27.37-64.43,64.9-64.43c35.16,0,63.48,23.6,63.72,63l-96.53,18.88c6.14,14.39,19.83,22.18,38.24,22.18C739.75,627,750.6,622.49,759.8,613.29Zm-76-27.62v.24l71.27-13.69c-4-15.34-17.22-25.72-34.92-25.72C698.68,546.5,683.81,561.6,683.81,585.67Z"/><path class="cls-2" d="M427.83,771.46V900.33H382.47V775.05c0-32.4-16.92-45.35-42.12-45.35S296.43,743,296.43,775.41V900.33H250.71V775.05c0-32.4-15.84-45.35-41.4-45.35-25.2,0-45,13.31-45,45.71V900.33H119V694.41h44.64v20.88c14-16.2,35.64-24.12,60.48-24.12,27,0,47.88,9.72,60.48,29.16,15.12-19.08,39.24-29.16,67.68-29.16C399.39,691.17,427.83,718.54,427.83,771.46Z"/><path class="cls-2" d="M626.54,843.81l23.76,27.73c-16.92,20.51-43.92,31.31-77,31.31-64.44,0-106.2-41.39-106.2-98.64s41.76-98.28,99-98.28c53.64,0,96.84,36,97.19,96.12L516,830.85c9.36,22,30.24,33.85,58.32,33.85C596,864.7,612.5,857.85,626.54,843.81ZM510.62,801.7v.35l108.72-20.88c-6.12-23.39-26.27-39.24-53.27-39.24C533.3,741.93,510.62,765,510.62,801.7Z"/><path class="cls-2" d="M903.74,633.21V900.33h-43.2V875.5c-15.12,18.35-37.44,27.35-63.72,27.35-55.8,0-97.2-38.88-97.2-98.64s41.4-98.28,97.2-98.28c24.84,0,46.8,8.28,61.92,25.92V633.21Zm-44.28,171c0-36.72-24.84-60.12-57.24-60.12S745,767.49,745,804.21s24.84,60.12,57.24,60.12S859.46,840.93,859.46,804.21Z"/><rect class="cls-2" x="690.85" y="413.45" width="131.66" height="47.6" transform="translate(-70.72 155.89) rotate(-11.24)"/><polygon class="cls-2" points="815.78 486 905 407.77 792.64 369.6 815.78 486"/><line class="cls-3" x1="423.17" y1="422.74" x2="520.82" y2="403.33"/><polygon class="cls-2" points="516.69 449.9 584.17 390.74 499.2 361.87 516.69 449.9"/><rect class="cls-2" x="559.85" y="239.1" width="159.94" height="57.83" transform="translate(-39.97 129.86) rotate(-11.24)"/><polygon class="cls-2" points="711.62 327.24 820 232.2 683.51 185.83 711.62 327.24"/><rect class="cls-1" x="286" y="360" width="33" height="121"/></g></g></svg>